<?xml version="1.0" encoding="UTF-8"?>
<svg width="200px" height="200px" viewBox="0 0 200 200" version="1.1" xmlns="http://www.w3.org/2000/svg" xmlns:xlink="http://www.w3.org/1999/xlink">
    <!-- Generator: Sketch 62 (91390) - https://sketch.com -->
    <title>logo</title>
    <desc>Created with Sketch.</desc>
    <g id="logo" stroke="none" stroke-width="1" fill="none" fill-rule="evenodd">
        <circle id="Oval" fill="#000000" cx="100" cy="100" r="98"></circle>
        <path d="M64.2748092,144 C81.0515267,144 94,135.165746 94,119.535912 C94,112.400552 92.0858779,106.51105 87.8072519,102.433702 C84.4293893,99.2624309 79.8129771,97.2237569 72.4942748,96.2044199 L63.0362595,94.8453039 C59.7709924,94.3922652 57.1812977,93.1464088 55.6049618,91.6740331 C53.9160305,90.0883978 53.240458,87.9364641 53.240458,85.8977901 C53.240458,80.3480663 57.2938931,75.7044199 65.6259542,75.7044199 C70.9179389,75.7044199 76.9980916,76.3839779 82.0648855,81.2541436 L91.9732824,71.4005525 C85.1049618,64.718232 77.110687,62 66.0763359,62 C48.7366412,62 38.1526718,72.0801105 38.1526718,86.4640884 C38.1526718,93.2596685 40.0667939,98.4696133 43.8950382,102.320442 C47.4980916,105.831492 52.5648855,107.983425 59.4332061,109.002762 L69.1164122,110.361878 C72.8320611,110.928177 74.6335878,111.720994 76.2099237,113.19337 C77.898855,114.779006 78.6870229,117.157459 78.6870229,119.98895 C78.6870229,126.444751 73.7328244,129.955801 64.5,129.955801 C57.0687023,129.955801 50.2003817,128.256906 45.1335878,123.160221 L35,133.353591 C42.8816794,141.395028 52.1145038,144 64.2748092,144 Z M135.5,144 C150.812977,144 162.29771,134.939227 165,118.516575 L149.124046,118.516575 C147.435115,125.425414 143.156489,129.955801 135.612595,129.955801 C131.333969,129.955801 127.956107,128.596685 125.591603,125.765193 C122.383621,122.315741 121.675265,118.756968 121.651397,103.811602 L121.650763,103 C121.650763,87.3701657 122.326336,83.7458564 125.591603,80.2348066 C127.956107,77.4033149 131.333969,76.0441989 135.612595,76.0441989 C143.156489,76.0441989 147.435115,80.5745856 149.124046,87.4834254 L165,87.4834254 C162.29771,71.0607735 150.925573,62 135.5,62 C126.942748,62 119.736641,64.9447514 113.881679,70.8342541 C110.391221,74.3453039 108.251908,78.3093923 107.351145,82.9530387 C106.450382,87.4834254 106,94.1657459 106,103 C106,111.834254 106.450382,118.516575 107.351145,123.046961 C108.251908,127.577348 110.391221,131.654696 113.881679,135.165746 C119.736641,141.055249 126.942748,144 135.5,144 Z" id="SC" fill="#FFFFFF" fill-rule="nonzero"></path>
    </g>
</svg>