<?xml version="1.0" encoding="UTF-8"?>
<svg width="120px" height="120px" viewBox="0 0 120 120" version="1.1" xmlns="http://www.w3.org/2000/svg" xmlns:xlink="http://www.w3.org/1999/xlink">
    <!-- Generator: Sketch 62 (91390) - https://sketch.com -->
    <title>logo</title>
    <desc>Created with Sketch.</desc>
    <g id="logo" stroke="none" stroke-width="1" fill="none" fill-rule="evenodd">
        <circle id="Oval" stroke="#000000" stroke-width="12" cx="60" cy="60" r="52"></circle>
        <path d="M62.5402301,93.5886269 C67.1386068,93.5886269 71.3216463,93.0175382 75.0893485,91.8753608 C78.8570507,90.7331833 82.001747,89.3314201 84.5234375,87.6700711 L84.5234375,87.6700711 L84.5234375,72.183925 L74.8668464,72.183925 L73.5318338,81.3065111 C71.9891526,81.9888508 70.2758864,82.5451061 68.3920353,82.9752768 C66.5081842,83.4054475 64.6317498,83.6205329 62.7627322,83.6205329 C59.0246969,83.6205329 55.7909998,82.7082743 53.0616407,80.8837571 C50.3322816,79.0592399 48.2259284,76.4856323 46.7425811,73.1629342 C45.2592337,69.8402362 44.5175601,65.9093658 44.5175601,61.370323 L44.5175601,61.370323 L44.5175601,59.1008016 C44.5175601,54.5617588 45.2221501,50.6383051 46.63133,47.3304405 C48.04051,44.022576 50.0652791,41.4638019 52.7056373,39.6541181 C55.3459956,37.8444344 58.5055254,36.9395925 62.1842268,36.9395925 C63.7565749,36.9395925 65.217672,37.0730938 66.5675181,37.3400963 C67.9173642,37.6070988 69.1707927,37.9927691 70.3278036,38.4971072 C71.4848145,39.0014453 72.5528246,39.6096177 73.5318338,40.3216244 L73.5318338,40.3216244 L74.8668464,50.1562172 L84.5234375,50.1562172 L84.5234375,34.4920694 C81.497409,31.940712 78.0634599,30.0420274 74.2215903,28.7960157 C70.3797207,27.5500039 66.2634319,26.9269981 61.8727238,26.9269981 C55.6129981,26.9269981 50.2136138,28.3065111 45.674571,31.0655371 C41.1355282,33.8245631 37.6422452,37.629349 35.1947221,42.4798948 C32.747199,47.3304405 31.5234375,52.9004098 31.5234375,59.1898024 L31.5234375,59.1898024 L31.5234375,61.370323 C31.5234375,67.9563851 32.7916995,73.6598556 35.3282234,78.4807344 C37.8647473,83.3016132 41.4618646,87.024815 46.1195752,89.6503398 C50.7772858,92.2758646 56.2508374,93.5886269 62.5402301,93.5886269 Z" id="C" fill="#000000" fill-rule="nonzero"></path>
    </g>
</svg>